<?xml version="1.0" encoding="UTF-8" standalone="no"?><!DOCTYPE svg PUBLIC "-//W3C//DTD SVG 1.1//EN" "http://www.w3.org/Graphics/SVG/1.1/DTD/svg11.dtd"><svg width="100%" height="100%" viewBox="0 0 1080 1080" version="1.1" xmlns="http://www.w3.org/2000/svg" xmlns:xlink="http://www.w3.org/1999/xlink" xml:space="preserve" xmlns:serif="http://www.serif.com/" style="fill-rule:evenodd;clip-rule:evenodd;stroke-linejoin:round;stroke-miterlimit:2;"><g id="Layer-1" serif:id="Layer 1"><path d="M1030.8,771.103l-304.487,-522.985c-10.674,-18.335 -30.187,-29.723 -51.401,-30c-21.265,-0.275 -41.015,10.6 -52.165,28.649l-86.492,140.024l-80.737,-138.673c-10.817,-18.58 -30.694,-30.006 -52.187,-30.006l-0.111,0c-21.536,0.04 -41.421,11.545 -52.189,30.196l-301.945,522.985c-16.677,28.884 -6.78,65.817 22.104,82.494c9.511,5.49 19.893,8.1 30.137,8.1c20.87,-0.001 41.17,-10.832 52.355,-30.205l249.866,-432.78l60.762,104.363l-102.041,165.199c-17.527,28.376 -8.733,65.587 19.642,83.114c28.375,17.527 65.587,8.734 83.114,-19.643l68.168,-110.359l63.467,109.008c11.216,19.267 31.45,30.015 52.244,30.015c10.315,-0 20.77,-2.645 30.328,-8.211c28.822,-16.781 38.585,-53.75 21.803,-82.572l-95.898,-164.714l67.457,-109.208l253.829,435.977c11.217,19.267 31.452,30.015 52.246,30.015c10.315,-0 20.77,-2.645 30.327,-8.211c28.823,-16.78 38.585,-53.749 21.804,-82.572" style="fill-rule:nonzero;"/></g></svg>